<?xml version="1.0" encoding="UTF-8"?>
<svg width="752pt" height="752pt" version="1.1" viewBox="0 0 752 752" xmlns="http://www.w3.org/2000/svg">
 <defs>
  <clipPath id="a">
   <path d="m139.21 139.21h473.58v473.58h-473.58z"/>
  </clipPath>
 </defs>
 <g clip-path="url(#a)">
  <path d="m376 612.79c-130.57 0-236.79-106.22-236.79-236.79 0-130.57 106.22-236.79 236.79-236.79s236.79 106.22 236.79 236.79c0 130.57-106.22 236.79-236.79 236.79zm0-434.12c-108.8 0-197.32 88.52-197.32 197.32s88.52 197.32 197.32 197.32 197.32-88.52 197.32-197.32-88.52-197.32-197.32-197.32zm78.93 138.13h-157.86c-10.891 0-19.734-8.8398-19.734-19.734 0-10.891 8.8398-19.734 19.734-19.734h157.86c10.91 0 19.734 8.8398 19.734 19.734 0 10.891-8.8203 19.734-19.734 19.734zm0 78.93h-157.86c-10.891 0-19.734-8.8398-19.734-19.734 0-10.891 8.8398-19.734 19.734-19.734h157.86c10.91 0 19.734 8.8398 19.734 19.734 0 10.891-8.8203 19.734-19.734 19.734zm0 78.93h-157.86c-10.891 0-19.734-8.8203-19.734-19.734 0-10.91 8.8398-19.734 19.734-19.734h157.86c10.91 0 19.734 8.8203 19.734 19.734 0 10.91-8.8203 19.734-19.734 19.734z"/>
 </g>
</svg>
