<svg width="40" height="74" viewBox="0 0 40 74" fill="none" xmlns="http://www.w3.org/2000/svg">
<path d="M7.04403 3.63359C6.72668 3.29868 6.39938 3.05726 6.50184 3.19999C5.8926 2.48032 5.81799 2.52676 5.83491 2.33698C5.46005 1.85854 4.93676 1.47257 5.37887 2.00107L4.2159 0.704658L4.96481 1.42593C4.90771 1.2826 4.60846 0.994529 4.30702 0.700455L4.19441 0.590151L4.16635 0.562725L4.15262 0.549112L4.09155 0.49346L4.03185 0.444816L3.97355 0.39677L3.94491 0.372948C3.93675 0.365541 3.90889 0.348525 3.89158 0.337115C3.81472 0.287904 3.73564 0.24228 3.65461 0.200387C3.57562 0.158548 3.51772 0.146536 3.45246 0.121112C3.38958 0.101294 3.33149 0.0752695 3.27518 0.0654603C3.16336 0.0418383 3.06884 0.0216202 3 0L3.1355 0.0104086C3.25484 0.0176673 3.37271 0.0406866 3.48608 0.0788731C3.55811 0.102095 3.62894 0.119111 3.72544 0.172961C3.77101 0.196784 3.81756 0.222608 3.86392 0.250434L3.93336 0.293473C3.95605 0.308087 3.98311 0.325704 3.98848 0.331709L4.119 0.440211L4.12736 0.447217L4.18665 0.500868L4.20177 0.516481L4.23241 0.547712L4.29429 0.61057L4.95348 1.2822L4.91547 1.18691C5.18706 1.52162 5.78676 2.09916 6.00323 2.29294C5.98493 2.2465 6.0283 2.2441 5.7969 2.00607C7.40536 3.61117 6.07924 2.59022 7.38009 3.9563C7.29931 3.87122 7.19485 3.76872 7.04403 3.63359ZM8.6135 4.79268L9.06536 5.4625L10.0306 6.37796C10.0041 6.4258 10.6571 7.14287 10.1623 6.71047C10.0777 6.61378 9.90997 6.4228 9.76234 6.28087C9.78701 6.46644 10.9691 7.57528 10.6127 7.37929C9.89247 6.61198 9.76114 6.51529 9.36958 5.9908C8.68254 5.31436 8.1692 4.83492 7.8228 4.54485C7.63318 4.32964 7.65368 4.25197 7.40715 3.98412L7.57806 4.16229L7.7257 4.0694C7.91412 4.31003 8.12821 4.5012 8.363 4.74243L7.40576 3.49727C7.87214 3.74029 8.8843 4.89137 9.36162 5.27793C8.72651 4.84252 9.73727 5.75698 8.6135 4.79268ZM7.40715 3.98452L7.38049 3.9571L7.40715 3.98452ZM14.8772 59.2173C15.1126 58.9847 15.2097 58.9441 15.2577 58.9244L12.6285 61.5653C12.6792 61.4508 13.3967 60.6503 12.8724 61.1399C13.063 60.8779 13.7797 60.2171 13.9218 60.1596L13.6834 60.3029C14.3504 59.756 14.6424 59.2181 14.2115 59.5787L14.2632 59.528L16.1767 58.0799C15.575 58.7131 15.621 58.4746 14.8772 59.2173ZM4.69979 4.37308C5.02908 4.72661 5.05972 4.78027 5.00938 4.75304C4.90181 4.63006 4.79854 4.50333 4.69979 4.37308ZM16.6242 57.7415L17.2235 57.2877C16.9933 57.4793 16.7817 57.6384 16.6242 57.7415ZM11.8581 60.2667C11.8531 60.2637 11.8439 60.2659 11.8525 60.2467L12.1263 60.0477C12.1242 60.0496 12.1222 60.0516 12.1203 60.0537C12.024 60.1318 11.9377 60.2016 11.8581 60.2667ZM28.8223 46.0294L29 45.8612C28.9367 45.9237 28.8778 45.9788 28.8223 46.0294ZM4.31777 67L5.55715 65.8966C5.36773 66.0193 5.94135 65.4626 5.65583 65.6706C5.75014 65.5865 6.18091 65.1801 6.08441 65.312L5.84385 65.5496C6.55815 65.029 6.22289 65.4423 7.31901 64.4902C6.74339 65.1869 6.41211 65.4127 6.03149 65.7056L5.71234 65.9995L4.60369 66.838L4.31777 67ZM20.4157 21.3099L20.4207 21.3305C20.4117 21.3159 20.4121 21.3111 20.4157 21.3099ZM20.4404 21.4134L20.4207 21.3303C20.4678 21.4094 20.6931 21.6664 20.4404 21.4134ZM16.3675 57.8717C16.4017 57.8741 16.4915 57.8286 16.6242 57.7417L16.1767 58.0799L16.3675 57.8717ZM15.2612 58.5521L14.2632 59.528L13.8496 59.8415C14.2453 59.4822 14.6989 59.0524 15.2612 58.5521Z" fill="#F16A50"/>
<path d="M26.9889 47.5713C29.0189 45.58 26.3794 47.9503 27.2777 47.001C27.8506 46.4575 28.1024 46.3149 28.4683 45.9849C26.8237 47.5298 28.8641 45.9475 27.2232 47.5233C27.5509 47.3931 28.4929 46.4728 29.0132 45.9018C29.5377 45.1911 28.4028 46.3711 28.1696 46.4185C28.832 45.7898 28.7352 45.9204 29.0626 45.6999C30.056 44.667 31.2803 43.7237 31.7553 42.9891C32.5114 42.2779 32.5084 42.3713 32.9809 42C33.1665 42.0172 31.9409 43.1416 31.7483 43.4924C31.7961 43.4276 31.8891 43.3009 31.8429 43.3185L31.2287 43.9725C31.7967 43.3367 31.0436 43.955 30.7131 44.2682C30.4764 44.4997 30.0057 44.9594 30.0979 44.9235L30.4751 44.5918C30.0499 45.0787 29.3925 45.5221 28.9646 46.0573C28.9621 46.1051 29.1554 45.934 29.1973 45.9206C28.5871 46.3901 28.0695 46.9134 27.2199 47.662L27.7845 47.2999C27.0328 47.8267 25.6142 49.3021 24.6677 50.3613C24.762 50.2334 24.951 50.0215 24.8112 50.1221C24.1968 50.6858 23.8199 51.1986 24.1462 50.979C23.4862 51.4702 22.019 53.2366 21.1249 53.9114L17 57C17.1567 56.8717 17.3091 56.7383 17.457 56.6001C17.6972 56.185 17.8849 56.0195 17.226 56.5096C17.8377 55.9935 17.6929 56.2791 18.5455 55.4375C18.168 55.7248 17.9826 55.7077 18.7855 54.8875C20.907 52.9509 22.5055 51.8592 24.533 50.0963C24.535 49.9588 26.045 48.4934 26.7536 47.7562C26.404 47.9587 25.8455 48.4734 25.2727 49.0144L26.6631 47.6103L26.9889 47.5713Z" fill="#F16A50"/>
<path d="M22.2049 52.3105C22.2536 52.251 22.3041 52.1929 22.3562 52.1363C22.332 52.1716 22.2876 52.224 22.2049 52.3105ZM25.4091 49.3674C25.3991 49.3721 25.3995 49.3674 25.3941 49.367L25.5847 49.191L25.4091 49.3674ZM16.3919 57.3544C16.2455 57.4582 16.1466 57.5441 16 57.6477L16.2874 57.4022C16.3863 57.3237 16.4383 57.2917 16.3919 57.3544ZM16.0919 57.8937L16.1887 57.8562C16.1367 57.9117 16.1003 57.9508 16.0547 58C16.0241 57.999 16.0265 57.9706 16.0919 57.8937ZM34.7827 39.1827L35 39C34.8771 39.118 34.8185 39.1631 34.7827 39.1827Z" fill="#F16A50"/>
<path d="M29.2473 44.3172C28.523 45.0148 29.0576 44.2992 28.0419 45.2952L28.3336 44.9966C27.5607 45.6679 26.301 46.9444 25.432 47.7903C25.571 47.7354 24.9576 48.3548 25.1232 48.3187C24.5165 48.8846 23.9164 49.4455 23.5451 49.6796C23.2004 50.0609 22.5852 50.5498 22.1469 51.0343C22.3046 50.8029 21.3518 51.5563 22.5332 50.4897C22.4366 50.5746 22.4851 50.5095 22.3892 50.5928C23.0653 49.8224 23.4504 49.6251 24.0807 49.0087C24.4188 48.6018 23.4035 49.5519 23.7431 49.1883C24.5646 48.4519 26.1626 46.7224 26.2551 46.9154C26.8373 46.3641 26.8842 46.2553 27.0284 46.0622C28.087 45.3252 30.3194 42.702 30.508 42.9032C30.17 43.2198 29.6359 43.7521 29.1094 44.1863L29.2473 44.3172ZM17.5177 54.9784C17.5637 54.9321 17.6096 54.8857 17.6555 54.8394L17.5177 54.9784ZM9.03274 64.4267L9.46161 64.2584C11.2011 62.6113 11.7824 61.9695 13.2818 60.5079C13.3783 60.3786 13.1859 60.5455 13.0882 60.6301C14.1534 59.6136 15.6981 58.0446 16.5218 57.3521C16.855 57.0231 17.6916 56.1219 17.3217 56.4105C17.4956 56.2621 17.6926 56.0904 17.8755 55.9028C17.8789 55.8089 17.4436 56.3008 17.395 56.2741C17.5403 56.1256 17.589 56.06 17.6376 56.0408C17.3483 56.2466 17.7397 55.6329 16.579 56.7777C16.2367 57.3258 17.3985 55.9979 17.2518 56.3761C16.8669 56.7556 16.8654 56.6664 16.8179 56.6846C16.3288 57.1698 16.3717 57.1866 16.4251 57.1876C16.1997 57.3363 15.6326 57.994 15.3164 58.1943C14.3506 59.124 15.4578 58.2312 14.8319 58.8428L14.351 59.0777L13.3354 60.1196C11.7895 61.5537 13.3416 59.7037 11.555 61.3235C11.8439 61.1636 11.2605 61.9442 10.4857 62.7539C10.9686 62.2885 11.9321 61.4975 12.5139 60.8559C11.7375 61.8036 13.7237 59.6905 13.3801 60.2404C12.8984 60.6127 12.174 61.3101 11.642 61.8867L11.8366 61.7176C11.2542 62.3146 10.6773 62.6327 9.90438 63.4861C9.49223 63.883 9.60283 63.8414 9.70294 63.7985C9.33934 64.1196 9.00716 64.3994 9.03274 64.4267ZM9.94709 63.5788L10.4811 63.0309C10.3715 63.1779 10.1675 63.3772 9.94709 63.5788ZM15.7424 11.8684L15.5667 11.7151C15.6084 11.7454 15.6739 11.8045 15.7424 11.8684ZM15.0156 60.867L15.328 60.5526C15.2261 60.6595 15.1219 60.7643 15.0156 60.867ZM22.5125 54.2913L23.0028 53.8654C22.847 54.0156 22.6833 54.1577 22.5125 54.2913ZM19.5217 15.5618L19.5378 15.576L19.6043 15.6539L19.5217 15.5618ZM36.4661 40.0401C36.5392 39.9443 36.6162 39.8513 36.6969 39.7615C36.6959 39.7858 36.6083 39.8888 36.4661 40.0401ZM22.4223 54.3696L22.448 54.3401L22.5125 54.2915L22.4223 54.3696ZM12.2413 64.2818L12.0268 64.4686C12.0954 64.4033 12.167 64.3409 12.2413 64.2818ZM12.3447 63.5081C12.2687 63.5767 12.1954 63.6413 12.136 63.6894L12.3447 63.5081ZM1 69L1.44297 68.5992C1.23186 68.8027 1.10012 68.9187 1 69ZM11.297 64.6917C11.2667 64.7106 11.2363 64.7294 11.2146 64.7403C11.2772 64.6863 11.3121 64.6658 11.297 64.6917ZM12.677 9.56602L12.7024 9.59172L12.699 9.61604L12.677 9.56602ZM11.8175 8.37707L11.4533 8C11.5791 8.12147 11.7006 8.24724 11.8175 8.37707ZM36.6532 32.456C36.5231 32.3625 36.2376 32.1232 36.3412 32.264C36.1506 32.0275 36.2259 31.9816 36.6532 32.456ZM13.9967 12.3449C13.9451 12.2625 13.8734 12.1673 13.8009 12.072C13.9409 12.2441 14.0646 12.3939 13.9967 12.3449ZM13.8011 12.072L13.5974 11.8188C13.6672 11.9017 13.7351 11.9862 13.8011 12.072ZM37.9769 35.9382C37.9956 35.9606 38.001 35.9965 37.9998 36.0458C37.9722 36.0294 37.9781 35.9918 37.9769 35.9382Z" fill="#F16A50"/>
<path d="M11.4902 8.0674C11.4524 7.97324 9.91609 6.31441 11.2743 7.64345C11.3105 7.50358 10.4531 6.74074 10.1163 6.3609C10.3973 6.60047 10.0435 6.17513 10.1537 6.22261C10.321 6.41095 10.5068 6.64736 10.8069 6.93481C10.9823 7.02957 10.5638 6.55675 10.2008 6.2238C10.6759 6.60601 9.72652 5.61012 10.369 6.18127C11.6351 7.50932 12.52 8.45793 13.3038 9.49853C12.5855 8.73806 11.7845 7.8848 11.1426 7.31386L11.3212 7.64483C12.0738 8.26326 12.4468 8.73628 13.1283 9.40337L11.5733 7.92951C10.8006 7.28359 11.2607 7.77263 11.806 8.34556C11.6675 8.20885 11.5385 8.08897 11.4902 8.0674ZM11.8426 9.75551L11.8149 9.73236C11.7956 9.70744 11.7696 9.67816 11.7589 9.66075L11.8426 9.75551ZM3.00039 70.994L3.15948 70.8928C3.03798 70.9885 2.99544 71.013 3.00039 70.994ZM13.1148 10.2901L13.1136 10.2891C13.1231 10.2999 13.1255 10.3025 13.1148 10.2901ZM3.93715 69.9936C3.93061 69.9964 3.92389 69.9986 3.9134 70.0045C3.92725 69.995 3.92962 69.9974 3.93715 69.9936ZM6.44369 70.7693C6.44132 70.779 6.4427 70.7839 6.43221 70.8016C6.3588 70.8664 6.38888 70.8294 6.44369 70.7693ZM3.94684 69.9984C3.94447 69.996 3.94427 69.9916 3.93715 69.9938C3.94209 69.9936 3.95021 69.9906 3.94684 69.9984ZM19.9658 54.5417C19.9658 54.5417 19.9292 54.6046 19.8635 54.6954C19.8261 54.7185 19.8481 54.6802 19.9658 54.5417ZM16.9715 57.7606L16.9232 57.8257L16.9715 57.7606ZM37.6377 33.2058C37.761 33.3268 37.8818 33.4504 38 33.5764C37.8756 33.4565 37.7547 33.3329 37.6377 33.2058ZM3.9134 70.0045C3.87283 70.0288 3.81842 70.0666 3.73195 70.1325C3.82673 70.0595 3.87956 70.0237 3.9134 70.0045ZM25.0875 50.1902L24.9837 50.2772L25.0367 50.2167L25.0875 50.1902ZM26.6528 48.5131C26.5889 48.5598 26.5544 48.576 26.5156 48.5996C27.1259 48.0526 28.1547 46.9552 28.3617 46.9105C28.1634 47.1048 27.1928 48.1701 27.4136 48.0441C26.99 48.4273 26.4505 49.0799 26.22 49.2839C26.838 48.5776 26.2234 49.144 25.7489 49.5638C25.3658 49.9939 25.8905 49.5523 25.5553 49.9175L24.6055 50.8491L25.4142 50.0192L25.0875 50.1902L25.1784 50.114C26.6011 48.764 25.1821 49.8823 26.6528 48.5131ZM26.5154 48.5996C26.4238 48.6813 26.3417 48.7517 26.2742 48.8024C26.4064 48.673 26.4652 48.63 26.5154 48.5996ZM32.0517 42.8078L32.3096 42.5748L32.0517 42.8078ZM13.058 59.8102C13.0566 59.8572 12.296 60.7125 12.2507 60.6381L12.9557 59.8954L13.058 59.8102ZM30.1497 27.2455C30.2413 27.3335 30.3324 27.4232 30.4218 27.5144L30.4651 27.5763C30.401 27.53 30.234 27.3409 30.1497 27.2455ZM27.6912 47.8227C27.5341 47.9616 27.4587 48.0179 27.4134 48.0441C27.5141 47.9529 27.6105 47.8721 27.6912 47.8227ZM29.9566 27.3371C29.8248 27.2396 29.6299 27.0967 29.5832 27.0956C29.3481 26.8617 29.2149 26.6657 28.9874 26.4158C29.248 26.6938 29.5656 26.9994 29.9566 27.3371ZM28.969 26.3952L28.9872 26.4158L28.969 26.3952Z" fill="#F16A50"/>
<path d="M13.278 59.7211L13.5084 59.5177L13.3788 59.614L13.924 59.0365C14.0058 58.9643 14.0863 58.8907 14.1656 58.8157C14.127 58.8498 14.0923 58.8713 14.0683 58.8823L14.2416 58.6958C14.7533 58.3127 15.916 57.2495 16.2752 56.9664C16.7283 56.57 17.2653 56.067 17.5876 55.7375C17.2856 56.0399 16.8704 56.427 16.9565 56.2726C17.536 55.6254 17.7311 55.2247 18.8835 54.2588L18.2588 54.8761L19.7952 53.6187C20.2302 53.0756 19.0284 54.2462 18.7852 54.3912C19.9418 53.3751 20.6707 52.2989 21.2927 51.9133C21.2945 51.774 21.2984 51.5405 22.0204 50.8375C21.5837 51.428 22.5 50.4622 22.1614 50.9662C22.4482 50.7602 22.9344 50.1494 23.0271 50.16L22.9316 50.1978C24.0429 48.8767 24.6148 48.6504 25.1936 48.1878C26.6841 46.7642 27.3108 46.0531 28.5148 44.8807C28.5152 44.7881 28.7123 44.339 29.1957 43.8689C29.4809 43.7103 30.5891 42.668 30.78 42.6384C29.9582 43.5209 30.0126 43.2661 29.4819 43.7557C29.1399 44.2627 29.5266 43.8769 28.9948 44.505C29.4319 44.006 31.1619 42.4409 31.5973 41.8517L31.4047 42.021C32.178 41.1578 32.1359 40.8046 33.6249 39.5655L34.3272 38.9661C34.2877 38.9894 34.2746 38.9836 34.2508 38.9932C34.7809 38.4585 34.9503 38.241 35.1435 38.0195C35.1944 37.9609 35.2464 37.9034 35.2997 37.8469C35.3717 37.771 35.4453 37.6966 35.5204 37.6236C35.6934 37.4547 35.9241 37.2409 36.2863 36.9174C36.1746 37.0172 36.2235 36.9513 36.1118 37.0513C36.2556 36.89 36.4048 36.7336 36.5593 36.5823C36.2745 36.2971 36.0189 36.0126 35.7686 35.7303L35.4008 35.3154L35.0926 34.9737C34.7151 34.7321 35.1002 35.1124 35.2437 35.3512C34.0344 34.2022 32.8726 32.8202 32.2196 32.0096L31.4175 31.2915C31.8421 31.7682 32.3243 32.3871 32.1457 32.2903C31.7398 31.8606 31.8526 31.9096 31.2465 31.3335C31.3049 31.4766 31.5138 31.7634 31.7386 32.0939C30.4398 30.9472 31.6166 31.6706 30.6263 30.9488C30.24 30.567 30.0786 30.2825 30.0883 30.1892L29.3221 29.5631C29.3105 29.4207 28.4522 28.5609 27.8972 27.9902C27.8566 27.8935 28.4225 28.3718 28.6111 28.6097C28.6208 28.5165 28.0441 27.8955 27.6566 27.5126C27.3766 27.5095 25.1456 24.9801 25.4396 25.5956C23.7479 23.827 21.3224 21.3915 20.2344 20.1962C19.8182 19.8589 19.0458 19.0964 19.4428 19.6191C18.0443 18.232 17.4654 17.3752 16.0402 16.0355C15.908 15.9387 16.6661 16.6594 16.5708 16.6562C15.7194 15.701 14.8621 15.0765 13.4919 13.643C13.7263 13.8804 13.7666 13.9772 13.7851 14.0242C13.8327 14.0258 13.2563 13.4047 12.9146 13.0212C12.6981 12.83 13.1703 13.3081 13.038 13.2117C10.2527 10.5801 8.37004 8.33755 5.66041 5.65995C6.43419 6.42453 6.63446 6.80522 6.60496 6.85084L5.84703 6.1016C5.60141 5.76673 5.03331 5.20316 4.59285 4.69776C4.5174 4.65692 4.26777 4.44596 4.48168 4.70155C3.68823 4.0061 3.14683 3.38536 2.5687 2.7172L2.12381 2.20523L2.06703 2.13989L2.03311 2.08749C2.00983 2.05343 1.98294 2.02175 1.97151 1.98072C1.93458 1.90721 1.91572 1.82454 1.9087 1.74146C1.90268 1.6578 1.91091 1.57114 1.93719 1.48886C1.95305 1.45042 1.96248 1.39922 1.98214 1.3793C1.99001 1.36548 1.99665 1.35102 2.00201 1.33607L2.00622 1.32392L2.02328 1.3038L2.0574 1.26336L2.12622 1.18148L2.13485 1.17112L2.13605 1.16993C2.0883 1.22252 2.12341 1.18407 2.11298 1.19562L2.11478 1.19443L2.1184 1.19184L2.13244 1.18148L2.16034 1.16017L2.21431 1.11435C2.23605 1.10439 2.2574 1.09362 2.27833 1.08207C2.32368 1.051 2.35639 1.0506 2.3895 1.03307C2.39733 1.02251 2.44087 1.01833 2.48121 1.01414L2.6008 1L2.46556 1.00159C2.44709 1.00259 2.41338 1.0004 2.40134 1.00438C2.3718 1.01253 2.34146 1.01748 2.31084 1.01912L2.24442 1.04542C2.19345 1.05797 2.1483 1.08964 2.09773 1.12251L2.07806 1.13447L2.06783 1.14044L2.06301 1.14343L2.06161 1.14423L2.06101 1.14463C2.06924 1.13546 2.04134 1.16574 2.07946 1.12391L2.07666 1.1269L2.03071 1.17391C1.99955 1.20606 1.96838 1.2382 1.93719 1.27033C1.88181 1.34822 1.80314 1.49145 1.78528 1.64365C1.77317 1.79748 1.80174 1.95178 1.86816 2.09128C1.91051 2.15662 1.94221 2.21419 1.99799 2.27993L2.15191 2.46042L2.46936 2.83294L1.85652 2.35225L2.74709 3.40348C2.11699 2.868 1.71786 2.28252 1.59505 2.20742C1.6083 2.25623 1.64663 2.31001 1.69057 2.36798L1.7582 2.45683L1.82402 2.52994C1.9091 2.62537 1.97773 2.70903 1.96348 2.73234C1.81618 2.59628 1.71083 2.50962 1.6115 2.37695C1.56054 2.32017 1.53144 2.25842 1.50495 2.20105C1.47806 2.14387 1.45157 2.09228 1.44274 2.0361L1.40883 1.87553L1.40482 1.7066C1.3994 1.64783 1.41485 1.58608 1.42408 1.51795C1.4299 1.44922 1.45338 1.3777 1.48167 1.29802C1.38374 1.49843 1.34703 1.76935 1.42689 2.04407C1.46622 2.17973 1.52923 2.32017 1.62756 2.4405C1.65004 2.47018 1.67592 2.50664 1.69759 2.53114L1.762 2.60345L1.89405 2.75007C2.27423 3.16813 2.66015 3.581 3.05171 3.98857L5.25064 6.26476C5.42342 6.45819 5.12743 6.07471 5.10937 6.0281C5.58134 6.506 5.91145 6.74625 6.48697 7.3662C6.79981 7.7955 6.15867 7.12754 5.85666 6.84028C5.84542 6.93232 5.99733 7.07694 6.31901 7.41162C6.45967 7.41381 8.15152 9.18201 8.66042 9.51947C10.3984 11.2881 8.19967 9.41807 9.9477 11.0936L10.5401 11.5243C11.476 12.5752 12.7115 13.9097 13.8569 15.0133L13.6218 14.7747C13.4971 14.5838 13.7799 14.8229 13.9131 14.9207C14.7999 15.7337 15.4699 16.5899 16.0661 17.0242C16.9545 18.0734 18.5137 19.7452 19.5824 20.8925C19.987 21.0865 18.2203 19.3641 17.8228 18.84L18.8347 19.8454C18.2103 19.2229 18.0028 18.938 17.6871 18.5065C18.5939 19.3681 18.7942 19.7484 19.6087 20.6098C19.5716 20.5165 19.7014 20.6108 20.0901 20.995L20.1309 21.1733C20.1435 21.1747 20.1919 21.2122 20.3161 21.3267L21.7701 22.8545C21.423 22.5686 21.3473 22.6134 20.9598 22.2304C21.1384 22.3272 20.8186 21.9937 20.4305 21.6108C20.724 21.9923 20.0149 21.2743 19.9856 21.3196C20.7632 22.0877 21.7067 23.0429 22.1964 23.5667L22.4255 23.6673C23.181 24.385 23.9259 25.1952 24.4457 25.6745L24.3216 25.4839C25.2281 26.3449 26.06 27.2527 26.9099 27.9724C27.6279 28.8302 28.5628 29.8793 29.1331 30.5968C29.3964 31.0222 31.5578 32.7983 32.3334 33.799C32.4024 33.8498 31.7829 33.1292 31.5098 32.7961C32.1158 33.3724 32.4849 33.9424 32.7576 34.041C31.397 32.7483 32.8984 34.0432 32.3233 33.4232C32.945 34.0436 33.5865 34.7115 33.8613 35.046C32.8533 34.0438 34.0997 35.5207 33.1162 34.4693C33.4581 34.8777 33.8751 35.3411 34.323 35.8122L34.7574 36.266C34.8649 36.3742 34.9753 36.4794 35.0888 36.5813L35.0308 36.6461C35.1058 36.6461 35.0835 36.7025 34.9214 36.8943C34.9176 36.8983 34.7007 37.0057 34.7045 37.0019C34.6043 37.111 34.7235 37.0246 34.8291 36.9543C34.9326 36.8857 35.0223 36.8333 34.789 37.084C34.7041 37.1453 34.6639 37.1696 34.4932 37.3286C34.3412 37.4691 34.1914 37.6118 34.0439 37.7569L33.1005 38.7008C32.4801 39.3233 31.9138 39.8725 31.6278 39.9857C30.9991 40.7447 33.0221 38.738 32.0552 39.8628C32.7281 39.3183 33.4995 38.4113 33.7866 38.2966C33.1635 38.8665 33.6407 38.5854 33.2554 38.9697L32.5348 39.5799L32.6793 39.4301C31.4779 40.4618 29.7417 42.2626 28.2973 43.6693C26.999 44.7865 26.0398 45.4909 24.5958 46.9433C25.0756 46.5674 23.4373 48.1902 24.4453 47.374C23.8174 48.086 23.1004 48.6928 23.0496 48.6687C23.6287 48.0683 23.2459 48.4502 23.7259 47.937C23.344 48.2258 22.5702 48.998 22.2814 49.3438C22.4257 49.1938 22.3782 49.2582 22.4251 49.24C21.7491 49.9717 22.0414 49.5315 21.5117 50.0195C21.4133 50.2435 20.4014 51.1557 19.9679 51.6511L19.2012 52.2324C19.6322 51.9226 18.5749 52.8974 18.5231 53.0577C17.9963 53.4974 17.5157 53.8277 16.7935 54.5767C17.1297 54.3048 16.1646 55.2901 16.2124 55.3628C15.0058 56.6756 13.9535 57.2778 12.8424 58.553C12.8937 58.5301 13.1753 58.3294 12.8404 58.692C12.5478 58.949 12.0722 59.4353 11.7706 59.7217L11.7816 59.7142L11.7646 59.7277C11.6169 59.8678 11.5183 59.9506 11.5003 59.9395C10.936 60.3819 10.6153 60.5803 9.57145 61.517C9.57526 61.3758 10.441 60.5696 10.8264 60.2311L11.2087 59.9873C11.4044 59.5857 12.1232 59.1155 12.3164 58.854C11.5978 59.3241 9.91118 61.0583 8.8061 62.0059C9.33747 61.2869 10.6884 59.9158 11.892 58.7442L11.4086 59.3064L12.0335 58.6886L11.5035 59.361C12.0812 58.7615 12.6108 58.2735 13.1406 57.7392C12.5141 58.3583 12.366 58.695 12.7045 58.3289C13.3332 57.5699 13.4749 57.6523 14.003 57.1196C13.7131 57.42 13.3288 57.8041 13.6167 57.5968C14.5834 56.472 14.9213 56.2441 15.7872 55.2082C15.7842 55.4403 16.9916 54.0352 17.2292 53.9872L16.7959 54.4367L17.8053 53.5729C18.5785 52.6187 16.9416 54.24 18.1946 52.8639C19.4006 51.6435 19.4903 51.7953 20.4566 50.8538C20.0729 51.0989 19.2549 51.7945 18.4846 52.5631L18.9192 52.066C18.6321 52.2724 17.5719 53.3414 17.043 53.8747C18.0024 53.0778 16.6547 54.308 16.3153 54.767C16.1755 54.7743 16.7516 54.2231 16.0304 54.8335C16.6575 54.2135 16.7544 54.1281 17.5256 53.3131C15.8349 55.0514 15.7487 54.6211 14.3022 56.1674C15.0246 55.5098 14.1563 56.5019 14.1052 56.6164C13.7715 56.932 13.095 57.5724 12.8064 57.8256L12.9569 57.4864C12.0407 58.3141 11.9392 58.8169 10.8307 59.7217C10.6422 59.795 11.6996 58.8207 11.5067 58.9898C10.0649 60.302 9.72136 60.9491 8.5663 62.2386C8.46838 62.2788 8.42202 62.2045 7.94242 62.5804C8.13446 62.5035 7.8463 62.848 8.37125 62.4103C7.98516 62.8416 7.4572 63.282 7.07292 63.6191C7.89325 62.738 6.64108 63.8841 6.44944 64.0062C6.0168 64.455 6.64148 63.9291 6.93024 63.6755C6.59051 64.0434 6.25299 64.546 5.96543 64.661C6.01178 64.7349 7.11687 63.8335 7.79111 63.1954L7.35707 63.6456C7.69359 63.3729 7.74215 63.3073 8.17319 62.8607C7.78871 63.3352 7.88302 63.3444 8.0265 63.2874C8.07426 63.2227 7.98075 63.3044 8.0261 63.2422C8.36543 62.8747 8.65419 62.6211 8.60403 62.7344C9.00416 62.4983 8.16275 63.2733 7.96289 63.552L7.40543 64.0733L5.30182 65.6443C4.48409 66.3957 4.19252 66.8093 3.64027 67.4354L3.4083 67.5274C2.73044 68.2147 2.10596 68.8783 2.63332 68.5301C2.63472 68.4825 2.73064 68.3982 2.87612 68.2472C2.90542 68.2368 2.94636 68.2097 2.99512 68.1721C3.01358 68.1619 3.02542 68.1581 3.04127 68.1506L1.76743 69.3361C3.11432 68.1998 1.95605 69.3998 2.28816 69.3156C1.99231 69.5911 1.69646 69.8666 1.4006 70.1421L1.29084 70.2443L1.14776 70.4046L1.10843 70.4495C1.10442 70.4529 1.09217 70.4702 1.08054 70.4873L1.04843 70.5355C1.00749 70.5983 0.973976 70.6557 0.947891 70.7031C0.895115 70.7989 0.871239 70.8545 0.874046 70.8515C0.933113 70.7076 1.00589 70.5697 1.09137 70.4395C1.09794 70.4301 1.10456 70.4207 1.11124 70.4114L1.14595 70.362C1.16269 70.3371 1.17936 70.3121 1.19592 70.2871L1.20034 70.2799L1.20094 70.2791L1.25873 70.2156L1.25993 70.2138L1.26234 70.2106L1.27097 70.1993L1.28341 70.1809C1.29605 70.1608 1.29284 70.1566 1.278 70.1646C1.27057 70.1686 1.26033 70.1756 1.24749 70.1849L1.23746 70.1925L1.23666 70.1931L1.17665 70.2588L1.17545 70.26L1.17284 70.2624L1.16782 70.2672L1.14576 70.2889C1.11365 70.3216 1.07713 70.3582 1.03217 70.4084C0.948296 70.5234 0.862206 70.6642 0.794983 70.8063C0.750031 70.9266 0.707291 71.0513 0.679398 71.168C0.659531 71.2866 0.646889 71.3977 0.638863 71.4886C0.655491 71.5458 0.667896 71.6042 0.675987 71.6633C0.692242 71.7519 0.702274 71.8692 0.748428 72.0021C0.768696 72.0689 0.791973 72.1406 0.818462 72.2155C0.851772 72.2876 0.890499 72.3629 0.93264 72.4406C0.974388 72.5218 1.02543 72.5979 1.08475 72.6675C1.11445 72.7041 1.14495 72.741 1.17565 72.7786L1.22341 72.834L1.22943 72.8408L1.30006 72.9042L1.3075 72.9105L1.32235 72.9233L1.44435 73.0279C1.52822 73.0892 1.65405 73.1655 1.76562 73.2223L1.85271 73.2649L1.92635 73.2908L2.07566 73.3384C2.17499 73.3721 2.27652 73.3876 2.37806 73.3976C2.58014 73.4279 2.7788 73.4044 2.9594 73.3765C3.138 73.3315 3.30295 73.2844 3.43238 73.2076L3.34509 73.2287C3.46489 73.1625 3.60135 73.0972 3.71894 72.991C3.77914 72.9416 3.84415 72.8856 3.90054 72.833L3.99566 72.7344L4.41626 72.3115C4.70238 72.0294 4.99312 71.7519 5.28837 71.4792C5.28837 71.5254 6.05553 70.9893 6.438 70.7455C5.58957 71.6392 6.13639 71.1519 6.10931 71.2642C6.196 71.1706 6.35774 71.0083 6.38563 70.9983C6.53051 70.8937 6.24215 71.1931 6.24035 71.2403C5.75954 71.6856 5.27774 72.1432 4.85653 72.5247C4.66779 72.697 4.47496 72.865 4.2782 73.0283L4.12569 73.151C4.036 73.2219 3.94709 73.2852 3.86221 73.3402C3.68863 73.4448 3.51626 73.5082 3.37639 73.551C3.57185 73.4458 3.75666 73.3526 3.90676 73.2265C3.98121 73.1691 4.0677 73.099 4.12569 73.0494L4.22823 72.9643C4.36629 72.8518 4.51037 72.7364 4.65546 72.5635C4.51545 72.669 4.37975 72.7801 4.2487 72.8964C4.21378 72.9277 4.17826 72.9591 4.14235 72.9916L4.07773 73.0498L3.95472 73.1518C3.79177 73.2924 3.59351 73.3978 3.38301 73.4918C2.92455 73.671 2.41882 73.6925 1.94662 73.5528C1.88422 73.5343 1.82181 73.5143 1.7596 73.4924C1.60328 73.4232 1.45358 73.3401 1.31231 73.2442C1.29023 73.2295 1.28381 73.2241 1.27919 73.2203L1.26054 73.2054L1.22301 73.1755L1.14736 73.1147L1.13793 73.1069L1.13311 73.103L1.04421 73.0231L1.0398 73.0183L1.00468 72.9795L0.935249 72.9C0.843544 72.7916 0.754047 72.6802 0.688229 72.5482L0.620804 72.4476C0.57016 72.3738 0.527317 72.295 0.492973 72.2125C0.453239 72.123 0.417122 72.0304 0.391838 71.9603C0.368359 71.89 0.35973 71.8412 0.35973 71.8412L0.349899 71.7374C0.346489 71.671 0.334049 71.5764 0.341473 71.4637C0.350601 71.335 0.366875 71.207 0.390232 71.0802C0.428963 70.9403 0.466892 70.8051 0.533512 70.6515C0.596035 70.5224 0.668282 70.3982 0.749634 70.2799L0.789364 70.2238C0.805019 70.2019 0.802807 70.2072 0.810432 70.1977L0.927425 70.067L1.01451 69.9716L1.02134 69.9654L1.03458 69.953L1.05906 69.9307C1.07238 69.9186 1.08562 69.9064 1.0988 69.8941C1.12087 69.8737 1.13372 69.8624 1.13372 69.8624C1.08916 69.8988 1.05264 69.9265 1.02073 69.9492L1.0089 69.9574L1.00327 69.9614L1.00288 69.9616L0.921005 70.0514L0.920197 70.052L0.918999 70.0532L0.916187 70.0554L0.896118 70.0716L0.859196 70.0999L0.791367 70.1475L0.756657 70.1722C0.741207 70.1859 0.705082 70.2321 0.678394 70.2666C0.619999 70.3429 0.554985 70.4369 0.485954 70.5612L0.434784 70.6594L0.399063 70.7483C0.374981 70.811 0.350296 70.8814 0.326015 70.9601C0.243942 71.2694 0.156052 71.7527 0.400463 72.3844C0.359528 72.3119 0.262608 72.1155 0.22448 71.8258C0.207222 71.6802 0.188759 71.5137 0.211834 71.332C0.220192 71.2377 0.232986 71.1438 0.250164 71.0507C0.274445 70.9555 0.303345 70.8575 0.336857 70.7588C0.376389 70.5935 0.590096 70.2339 0.699661 70.1022L0.794582 69.9937L0.908958 69.8668L0.935452 69.8419L0.98843 69.7917C1.12529 69.6627 1.25838 69.5298 1.38756 69.3932L1.72026 69.2166C1.57879 69.2713 2.63893 68.2024 1.821 68.8976C1.50668 69.1796 1.1923 69.4614 0.877857 69.7433L0.850567 69.7676L0.837322 69.7795L0.830704 69.7853L0.829098 69.7869L0.72916 69.8965L0.726154 69.8997L0.63726 69.9971L0.597927 70.0403C0.59692 70.0391 0.568829 70.0783 0.555786 70.0965L0.508827 70.164C0.449028 70.2524 0.40107 70.3335 0.363747 70.4009C0.288895 70.5377 0.25679 70.6162 0.260201 70.6106C0.255989 70.6168 0.287487 70.5266 0.351101 70.3915C0.38731 70.3149 0.426746 70.2398 0.469299 70.1664L0.578465 69.9879L0.664345 69.8433L0.769299 69.7275L0.770699 69.7257L0.773113 69.7224L0.777927 69.7158L0.786758 69.7038C0.792175 69.6965 0.797188 69.6899 0.801003 69.6843C0.808826 69.6735 0.813648 69.6676 0.813648 69.6676L0.767895 69.7114L0.762474 69.7168L0.652103 69.8377L0.640671 69.8508L0.615383 69.8807C0.597122 69.902 0.576855 69.9263 0.554379 69.9524L0.537323 69.9728L0.528694 69.9831C0.526485 69.9853 0.523273 69.9891 0.512035 70.0048C0.392616 70.17 0.289597 70.3463 0.204414 70.5311C0.157455 70.6447 0.127357 70.7449 0.0936432 70.8589L0.049099 71.0276C0.0394669 71.0848 0.0316391 71.1425 0.0246124 71.2007C-0.049633 71.6671 0.0563202 72.1382 0.179733 72.4679C0.250771 72.6296 0.322609 72.7607 0.373978 72.8502C0.423744 72.9414 0.462475 72.9856 0.462475 72.9856L0.441605 72.9538C0.427959 72.9338 0.410702 72.9038 0.392239 72.8661C0.354313 72.7916 0.306156 72.6904 0.263615 72.5882C0.223274 72.4957 0.191761 72.3997 0.169495 72.3013L0.138794 72.1681C0.162876 72.2577 0.189564 72.3444 0.218056 72.4274C0.24836 72.5095 0.288494 72.586 0.325619 72.6611C0.363747 72.7358 0.403278 72.8071 0.443413 72.8751C0.485153 72.9416 0.53331 73.001 0.578861 73.0599C0.625015 73.1183 0.67157 73.1737 0.717922 73.2263L0.75264 73.2651L0.769897 73.284L0.774315 73.2886L0.776524 73.291L0.891907 73.3948L0.895924 73.3982L0.92662 73.4237C0.967358 73.4568 1.00568 73.4878 1.0414 73.5173C1.24468 73.6671 1.55352 73.8311 1.71064 73.8735C1.88261 73.9255 2.03291 73.9693 2.16616 73.9815C2.43425 74.0106 2.62228 74.0032 2.76897 73.9745C2.91565 73.9482 3.02181 73.9281 3.12334 73.8859C3.22549 73.8472 3.32663 73.8062 3.46027 73.7492C3.5877 73.6811 3.75846 73.6006 3.96495 73.4486C4.01971 73.4061 4.07358 73.3625 4.1265 73.3177L4.21379 73.242L4.25874 73.2016L4.2798 73.1809L4.45699 73.0093C4.63165 72.8451 4.80872 72.6835 4.98817 72.5245C5.61024 72.0926 6.18837 71.5386 7.20055 70.4885C6.43078 71.2111 7.05767 70.4993 6.72155 70.7252C7.44636 69.9281 7.78128 69.7488 8.21413 69.3917C8.35941 69.1494 8.45734 68.9721 7.78229 69.6564C7.59346 69.6385 8.69774 68.7831 8.65339 68.6155C10.9169 66.3748 10.8088 67.1591 13.3179 64.4038L13.1759 64.4596C14.9072 62.847 15.8239 61.835 17.4114 60.3261L18.5255 59.0032C18.2351 59.258 17.4178 59.9072 17.7084 59.514C17.224 60.2146 16.5537 60.8031 15.972 61.4983C15.8779 61.535 16.1183 61.2551 16.2142 61.1246C15.8281 61.5097 15.6836 61.7515 15.1535 62.24C15.1555 62.193 15.6852 61.6123 15.2518 62.0161L14.6247 62.7737C13.6621 63.6649 14.0036 63.0667 12.9425 64.1823C13.2062 64.0408 13.7089 63.7161 14.1465 63.3107C13.6605 63.8195 14.8487 62.6864 14.4295 63.1747C13.6204 63.7994 13.3444 64.2148 12.3319 65.1082C12.4567 65.0092 12.5038 64.9971 12.7448 64.769L11.3953 66.1842C11.6859 65.7911 10.1913 67.2647 10.2423 67.0589C11.6885 65.5588 11.3012 66.0371 12.9419 64.3203C12.4472 64.7763 11.7525 65.308 11.3911 65.5214C11.3795 65.5389 11.3576 65.5656 11.3072 65.6184C10.9723 65.7971 11.2141 65.516 11.0739 65.3867C11.9394 64.7186 12.3742 64.1295 13.3368 63.2838C13.5814 63.188 12.905 63.9002 12.4348 64.3287L13.2832 63.584L13.0918 63.7064L15.0955 61.668C14.7072 62.0457 14.5336 62.1326 14.3008 62.2997C14.5597 62.037 14.7993 61.7601 15.0535 61.4652C15.0662 61.5929 15.1527 61.6061 15.4067 61.3515C16.695 60.0391 17.3572 59.2556 17.7582 58.6974L17.9151 58.5516C17.7688 58.8406 18.9722 57.7607 19.4506 57.4326C19.3557 57.3784 20.0783 56.7204 20.4162 56.3088C20.7026 56.1955 20.5541 56.5784 20.1662 57.1027C19.205 57.9009 19.5925 57.5149 19.0639 57.8183L17.5739 59.15L17.9588 58.904C17.2826 59.6355 16.5134 60.2196 16.6543 60.2564C17.0871 59.9449 17.6674 59.297 18.0975 58.9884L17.6628 59.4849C18.5751 58.7532 18.0012 58.9815 19.0607 58.051C18.7691 58.4908 19.1566 57.9665 19.635 57.5924C19.3446 57.9858 17.8555 59.3161 18.2845 59.1462C18.8598 58.6866 19.8802 57.2621 20.6954 56.7075L20.6472 56.7264C21.6439 55.7036 22.0735 55.4232 22.4994 55.0927C22.8887 54.6231 23.5428 54.0904 24.015 53.6308L23.9661 53.6049L24.6411 52.9659C24.259 53.2099 23.8701 53.7348 23.2938 54.2875L23.2946 54.1484C22.7243 54.8787 22.163 55.1863 21.5968 55.6295C22.3942 54.9578 23.661 53.5466 23.9701 53.5097L24.3558 52.9874L24.5994 52.796C24.8863 52.4063 24.4567 52.6685 23.7822 53.3067C23.6855 53.4378 23.6368 53.5032 23.6861 53.4832C23.3492 53.756 23.0143 53.9811 22.2907 54.7315L22.7221 54.3761C21.8061 55.2955 20.9416 56.1003 20.5579 56.3455C21.8586 54.9964 23.1604 53.6922 24.4121 52.4557C24.9377 52.2461 25.4631 51.9001 25.797 51.8589C26.6619 51.0541 27.8195 49.9446 28.4936 49.1691L28.3978 49.2068C28.7031 48.8777 29.0251 48.5644 29.3627 48.2681C29.6994 47.8575 29.0285 48.4464 29.2691 48.1661L30.5183 47.0234C30.378 47.0312 29.3681 48.0334 28.8837 48.5049C28.9798 48.4205 29.1734 48.2501 29.1237 48.3173C28.5931 48.898 27.4412 49.8177 27.2932 50.155C27.0046 50.4082 27.9158 49.6771 27.0008 50.5955C26.4206 51.2429 26.1343 51.3567 26.0412 51.3921C25.9936 51.3648 26.9568 50.3813 26.5723 50.673C27.0566 50.2016 27.296 50.06 27.8731 49.4153C27.3933 49.8827 26.6717 50.448 26.4768 50.757C25.4671 51.6206 25.4259 51.312 25.8594 50.8624C25.809 51.022 27.6415 49.2281 26.4812 50.5228C27.1057 50.0437 28.1175 49.0404 28.8859 48.3653L28.8387 48.384L29.7554 47.5091C29.6091 47.6151 29.3205 47.8685 29.2744 47.8402L30.62 46.7039C29.8517 47.3326 31.0077 46.2262 31.2969 45.8797C31.4875 45.8042 32.0159 45.3632 31.5821 45.859C31.099 46.421 31.2455 46.1311 30.7641 46.6005L31.5301 46.0198L31.5792 45.9534L32.0601 45.6235C32.9749 44.7048 31.4859 45.8516 32.7373 44.7532L32.6847 45.0056C34.0348 43.6358 35.6741 41.783 36.6853 40.8718C36.3618 41.0789 36.1523 41.1036 36.4633 40.6861C36.0648 41.1162 35.2256 41.9423 34.6196 42.525C34.5227 42.6565 35.4841 41.9037 36.1104 41.2387C35.9617 41.7144 34.3806 42.7577 34.4719 42.9995C32.8794 44.6968 33.079 44.0621 31.7759 45.551C31.6818 45.4961 31.3411 45.9102 31.2014 45.918C31.4942 45.3849 33.0789 44.0623 33.9455 43.1171C33.851 43.1999 33.6608 43.3667 33.6116 43.3874C34.2397 42.7202 34.5251 42.4702 35.0069 42.0469L34.9585 42.1124C35.825 41.3973 35.3936 41.5696 35.8278 41.0734C36.0199 40.9046 36.6476 40.2387 36.598 40.3968L37.3726 39.4868L37.4153 39.6102C37.8971 39.1414 37.9465 38.9832 38.4297 38.6043L38.5244 38.6585L37.3657 39.8604C37.9906 39.2886 37.6047 39.7651 38.2802 39.1257C37.8708 39.451 37.9908 39.3113 38.2136 39.0727C38.3249 38.9532 38.462 38.8093 38.5714 38.6864C38.6189 38.6337 38.6645 38.5794 38.708 38.5235C38.7227 38.5041 38.7365 38.4841 38.7494 38.4635C38.7626 38.447 38.7733 38.4285 38.7809 38.4087C38.895 38.3067 39.0094 38.2047 39.1168 38.0979L39.3407 37.8631L39.4537 37.7441C39.4914 37.7043 39.5155 37.6585 39.5472 37.6156L39.4645 37.726L39.3624 37.827L39.4505 37.7063L39.5133 37.59C39.5528 37.5158 39.5972 37.4527 39.6195 37.3828L39.7001 37.1919C39.7228 37.1296 39.7375 37.0658 39.7573 37.0027C39.8027 36.877 39.8147 36.7391 39.833 36.575C39.8304 36.4927 39.8256 36.403 39.8167 36.304C39.8027 36.2058 39.7724 36.1004 39.7447 35.9819L39.83 36.2789C39.8458 36.3781 39.8595 36.4756 39.8715 36.572C39.8729 36.6682 39.8687 36.7634 39.8647 36.8582C39.8567 36.9525 39.8342 37.0435 39.8191 37.1363C39.7744 37.3176 39.7142 37.4987 39.6122 37.6659C39.5719 37.7543 39.5025 37.8334 39.4357 37.9165L39.2266 38.1714L38.8381 38.5446C38.7506 38.6243 38.6655 38.6984 38.568 38.7812L38.7937 38.5892C38.8226 38.5659 38.9139 38.4804 38.9886 38.4115L39.2384 38.1792C39.4136 37.9796 39.6231 37.7708 39.7509 37.527C39.8715 37.2784 39.963 37.0104 39.9871 36.7507C40.0481 36.2275 39.8773 35.799 39.8001 35.6156C39.6913 35.3442 39.4662 35.14 39.2847 34.9337C39.1068 34.7414 38.8822 34.4962 38.8015 34.4362C38.5776 34.2364 38.3526 34.0456 38.1094 33.8127C38.5529 34.2826 38.416 34.2591 38.4046 34.3396C38.399 34.3799 38.4247 34.446 38.57 34.6127L38.9855 35.0703L39.3536 35.465C39.4134 35.5433 39.4611 35.6327 39.5207 35.7237C39.5627 35.8235 39.6142 35.9271 39.6502 36.0431C39.6546 35.9694 39.5334 35.6741 39.4461 35.5825C39.6219 35.7341 39.8294 36.1811 39.7772 36.7045C39.7601 36.965 39.6594 37.227 39.5358 37.4605C39.4027 37.6886 39.1985 37.8744 39.0383 38.0457L38.6731 38.3665C38.7225 38.2685 38.6043 38.3533 38.5876 38.3434C38.5774 38.3404 38.5657 38.3404 38.6087 38.2862C38.6544 38.2294 38.7449 38.1284 38.9053 37.9569L39.1242 37.6842C39.0592 37.7782 39.0847 37.7748 39.175 37.6963C39.1973 37.6764 39.2249 37.6525 39.2536 37.623L39.3361 37.5154C39.365 37.4746 39.4013 37.4322 39.4306 37.3808C39.4563 37.3272 39.484 37.2702 39.5133 37.2099C39.6159 36.9646 39.6943 36.6321 39.6357 36.2857C39.5783 35.9397 39.4258 35.601 39.1505 35.3562L39.1601 35.4851C39.1668 35.5468 39.1613 35.6092 39.1589 35.6104C39.1658 35.6072 39.0801 35.5188 38.953 35.3863L38.4955 34.9094L37.9995 34.4307L38.0853 34.5271C37.6417 34.237 37.0563 33.4762 36.3379 32.8517C35.8936 32.3272 33.9943 30.508 34.9202 31.1827C34.2419 30.6556 33.8049 30.0357 33.1609 29.3649L34.0314 30.1337C33.1433 29.0848 33.369 29.4169 32.7247 28.5115C32.6139 28.4653 32.414 28.3195 32.5382 28.5099C31.2257 27.2192 29.3269 25.4002 28.6569 24.5438C27.731 23.6348 27.4479 23.629 26.2103 22.2923C25.9549 22.0058 26.5322 22.3937 25.6432 21.5781C25.577 21.5297 26.3797 22.4824 25.4364 21.5273C24.8484 20.764 23.7931 19.9952 22.989 19.041C22.4903 18.6109 21.6943 17.7959 21.7908 18.0344C22.5453 18.7507 23.575 19.8026 23.6998 19.9946C23.641 19.8506 24.2665 20.4743 23.7558 19.9012C24.9257 20.955 24.4356 20.6642 25.4735 21.621C25.5138 21.718 24.8797 21.1889 24.6909 20.9504C24.5883 21.0429 26.6173 22.9565 25.6101 22.1897C24.5321 21.1363 24.4186 20.6185 23.3887 19.8006C23.7008 20.2285 24.3323 20.7554 24.7015 21.3259L23.9006 20.6088L23.4184 19.9898L23.4371 20.0368C22.0023 18.7902 22.2935 18.7013 21.1388 17.4578C21.904 18.0828 21.1471 17.1293 21.7131 17.6089C20.9207 16.7975 20.3167 16.2235 20.2133 16.3154C21.6393 17.8893 20.1953 16.5028 21.4898 17.9818C21.2263 17.7897 21.678 18.4529 20.8376 17.6401C19.9727 16.6429 21.1988 17.8367 20.2988 16.8793C20.235 16.8333 20.169 16.7853 20.1871 16.8319C19.8092 16.3558 19.6685 16.3534 19.2058 15.7825L19.3091 15.9241C18.6102 15.348 18.6768 15.1625 18.0612 14.68C18.3541 14.8267 17.7509 14.2537 17.4549 13.8699C18.0407 14.3968 18.4469 14.5932 19.5425 15.6922C19.6182 15.8813 19.5058 15.8331 19.9304 16.3098L19.2216 15.592C19.3667 15.7548 19.4695 15.8863 19.5995 16.0383L20.3171 16.6913C19.4861 15.7851 19.9473 16.1211 19.6366 15.694C18.8137 14.9269 18.9941 15.0249 18.4735 14.5454C18.4398 14.679 16.7913 13.1611 15.8185 12.3029L16.2481 12.7226C16.8624 13.4378 15.7188 12.3365 15.671 12.3349L15.2267 11.8104C15.3126 11.907 15.4194 12.0522 15.2 11.8582C14.5573 11.1893 14.6791 11.1442 14.0377 10.4761C13.9418 10.4733 14.4272 11.0946 13.994 10.7131C13.8128 10.6135 13.2561 10.2749 12.4242 9.36728C12.38 9.28819 12.1635 9.05352 11.9088 8.78558C11.9428 8.82423 11.9869 8.87144 12 8.89116L11.3692 8.36544C11.7842 8.93459 12.4059 9.32066 12.8233 9.8926L12.7902 10.0091C13.1765 10.3932 13.6689 10.9466 13.8714 11.2249C13.2692 10.6526 13.1648 10.5098 12.5215 9.84C12.3816 9.79558 12.8103 10.2914 12.8721 10.3629L12.8169 10.2227C13.6651 10.941 13.9198 11.4608 14.9121 12.4182C15.0628 12.5618 14.9781 12.4668 14.9594 12.42C15.6786 13.2788 16.5555 13.9509 17.2294 14.8105L17.0179 14.5221L19.4135 17.2529L19.3924 17.2901C19.2612 17.1947 19.6467 17.5754 19.8648 17.7682L19.8642 17.7668L21.1814 19.2601C20.9992 19.1224 20.8251 18.9744 20.66 18.8169C20.5338 18.6232 19.5644 17.717 19.7715 17.7676C19.2897 17.3827 18.6565 16.6202 18.3078 16.3325C18.9397 16.8602 17.9763 15.8572 17.9175 15.7132C17.6725 15.5679 17.0592 14.8536 17.0689 14.995C16.9368 14.8982 17.3988 15.2348 17.6064 15.5199C18.1541 16.1863 16.4363 14.4663 17.1367 15.2783C16.2178 14.2737 14.9251 13.0306 13.9904 11.9813L14.5749 12.5078C14.1224 12.0779 13.0896 11.0231 12.9792 10.9771C13.3005 11.3114 13.6858 11.6923 14.0933 12.1232C14.039 12.2178 13.0826 11.1187 12.9895 11.1181L11.891 9.78184L12.4304 10.3091C12.1386 9.92925 10.9645 8.87263 10.1245 8.05945C10.4979 8.63358 11.3735 9.30452 12.205 10.2119C12.8002 10.8799 11.7148 9.92128 12.2903 10.5414C12.1107 10.4105 11.722 10.0191 11.5547 9.80196L11.2996 9.58541C11.7417 10.2093 12.9626 11.3801 13.6814 12.2527C13.6212 12.1732 13.5706 12.102 13.5594 12.0692C14.2105 12.6439 14.8338 13.2656 15.4087 13.8854C15.0622 13.5997 14.9566 13.4553 14.786 13.2644C14.7405 13.2648 15.2967 13.8368 15.4854 14.0746C14.9002 13.5477 15.3264 14.0258 14.958 13.6908C15.2992 14.0734 15.6 14.3591 16.0523 14.789C16.3172 14.982 15.911 14.5524 16.0039 14.5531C16.4321 15.0332 16.751 15.1307 17.3648 15.846C16.4578 14.984 17.4985 16.1777 17.7732 16.512L17.6211 16.3676C17.8485 16.7006 18.0852 16.9399 18.3291 17.0839C17.9879 16.7012 17.6211 16.3676 17.7794 16.4156C18.017 16.6562 18.2538 16.8961 18.5093 17.1821L18.3018 16.8975L19.4829 18.0927C19.6232 18.3284 19.8702 18.7095 19.9637 18.9444C20.2938 19.1848 20.6554 19.6167 20.9101 19.9028L20.8041 19.7573C21.3716 20.2384 22.5074 21.4347 22.5632 21.5753C22.9772 21.9104 20.1798 18.6669 22.7966 21.3437C23.8059 22.3467 23.2886 22.1041 23.8178 22.7232C23.8178 22.7232 23.7991 22.6772 23.8653 22.725C24.3172 23.1539 24.3096 23.2495 24.6507 23.6322C24.365 23.3898 23.9799 23.0095 23.8762 22.867C23.952 23.0559 24.8016 23.7758 25.0952 24.1567C24.7439 23.6328 25.9832 24.9713 25.6872 24.5878C26.6229 25.404 27.493 26.4062 27.8895 26.9292C28.5969 27.4112 28.9208 27.982 29.94 28.8922C29.7879 28.7478 29.5344 28.4633 29.3145 28.2685C28.8331 27.6509 30.3544 29.2277 29.5693 28.3207C29.7399 28.5119 29.5449 28.3705 29.3697 28.1746C29.0518 27.8433 28.7759 27.5081 28.8897 27.5577L29.7407 28.2792L29.4823 27.989L30.7655 29.092C30.784 29.1384 30.6542 29.0444 30.5877 28.996C32.0141 30.3369 33.5538 31.9606 34.7819 33.1569C34.797 33.3687 35.5244 34.133 36.3558 34.9817L36.9893 35.6265L37.3029 35.9471L37.4213 36.0702L37.4886 36.1437C37.5762 36.2387 37.6595 36.3297 37.6766 36.4369C37.6983 36.5407 37.6712 36.6381 37.6234 36.7017C37.6932 36.6359 37.7552 36.5674 37.8114 36.5297C37.869 36.4919 37.9266 36.4861 37.9672 36.5527C37.9728 36.464 37.9756 36.3158 37.8851 36.1692C37.8411 36.0961 37.7781 36.024 37.7107 35.9443C37.6758 35.9042 37.6415 35.8666 37.5995 35.8239C37.5399 35.7634 37.4779 35.7032 37.4137 35.6435C37.3023 35.5962 36.6524 35.0225 37.0112 35.451C35.6599 34.0647 37.2841 35.5492 36.9524 35.0735L37.3292 35.4618L37.6649 35.8168C37.8074 35.9853 37.9625 36.119 38.0304 36.2921C38.0614 36.3738 38.0745 36.4612 38.0689 36.5484C38.0633 36.6355 38.0391 36.7205 37.9979 36.7977C37.9222 36.9483 37.7805 37.0387 37.6674 37.1292L37.5197 37.2433L37.2877 37.4435L36.8276 37.8499L36.8268 37.8973L36.0568 38.5737C36.6365 37.9718 36.4948 37.8896 35.77 38.6872L35.8686 38.6004C35.4799 39.0799 34.5174 39.9249 33.844 40.6082L33.3172 41.002C32.6428 41.6865 32.7343 41.8357 32.5852 42.1276C31.5249 43.1972 30.8085 43.7113 29.9903 44.4064C29.6998 44.7996 28.1115 46.4013 29.0237 45.6227C28.0132 46.5335 27.9249 46.0596 26.4281 47.8569L26.9081 47.4814C25.3166 49.0402 22.9607 51.178 22.2859 51.9543C23.0518 51.5569 20.4973 54.0994 20.3955 54.5564C20.4331 54.4381 19.8252 55.0142 19.7169 55.0783C19.6077 55.2283 19.4115 55.4638 19.1444 55.6552C19.7249 55.0074 18.5249 55.9007 19.7757 54.8024C19.0563 55.2726 18.1918 55.9401 16.8913 57.2433L16.9858 57.2981L17.997 56.2491C17.9476 56.4075 18.4757 55.8752 18.7194 55.6839C16.8381 57.6348 19.1462 55.6078 17.1702 57.5499C16.9318 57.6902 17.0749 57.5878 16.5447 58.0763C16.7875 57.8402 16.8824 57.8484 16.4961 58.2338L16.0645 58.5438C15.5026 59.3492 17.2822 57.4962 16.7841 58.1649C17.602 57.4695 18.9483 56.1953 18.7988 56.5334C17.5936 57.7986 17.5047 57.4631 16.2517 58.793L16.1546 58.9705C15.671 59.3956 15.5315 59.4034 15.242 59.6118C15.2426 59.6572 15.1442 59.7895 14.8579 60.0867C13.992 60.7554 13.462 61.2441 12.6467 61.8449C14.6159 60.0466 14.1897 60.1682 16.211 58.301C15.8741 58.5737 14.4778 59.9148 14.2902 59.8958L14.3835 59.9522C13.7103 60.5433 13.0376 61.1345 12.2654 61.9497L12.794 61.5089C11.6859 62.5053 11.1521 63.3641 10.1945 64.0677C10.4821 63.7691 10.7233 63.534 10.9163 63.3651C10.3394 63.8717 9.66497 64.5562 9.08684 65.155L7.74115 66.2457C7.78891 66.272 7.01674 67.0432 7.44958 66.731C6.62643 67.6613 6.10007 67.9623 5.57312 68.4486C4.75138 69.4223 6.38904 67.7089 6.58068 67.7239C5.37365 68.9906 4.02656 70.2662 3.2586 70.8947C3.49679 70.6284 3.60676 70.4933 3.57586 70.4881C3.56181 70.5489 3.05532 71.0395 2.77719 71.317L2.53699 71.4591L2.52696 71.4706L2.52435 71.4734L2.55024 71.4989H2.55064L2.55204 71.4999L2.55626 71.5039C2.56014 71.5081 2.56363 71.5126 2.56669 71.5174C2.56709 71.5184 2.56488 71.5135 2.56649 71.5163C2.57071 71.5246 2.56489 71.5113 2.5679 71.5188C2.5709 71.5294 2.57594 71.5393 2.58274 71.5479C2.58495 71.5499 2.59458 71.5631 2.59819 71.5621C2.60123 71.5621 2.60424 71.5627 2.60703 71.5639L2.61405 71.5666C2.61987 71.5637 2.61264 71.578 2.63131 71.5609C2.62228 71.5704 2.61987 71.572 2.62007 71.5706L2.61706 71.571L2.61245 71.573C2.60883 71.5732 2.61084 71.5826 2.60542 71.5794C2.59518 71.5722 2.59559 71.5858 2.58555 71.5746C2.57432 71.579 2.56168 71.5497 2.55746 71.5497C2.55726 71.5437 2.55726 71.5404 2.55626 71.54C2.55867 71.54 2.54823 71.5404 2.56047 71.5417C2.58171 71.5452 2.60128 71.5553 2.61626 71.5706L2.62709 71.5832C2.6283 71.5856 2.63934 71.5987 2.62569 71.5866L2.52616 71.5057L2.47599 71.4664L2.47559 71.4662L2.54863 71.5318L2.54884 71.5316L2.54903 71.5312L2.54923 71.5308L2.54943 71.5298V71.5288C2.54863 71.528 2.54542 71.5294 2.5392 71.5318C2.539 71.5298 2.52395 71.536 2.51231 71.5354C2.50428 71.5425 2.51291 71.5423 2.50469 71.5519C2.50168 71.5593 2.51051 71.5599 2.50629 71.5714L2.50589 71.5734L2.50568 71.5744L2.50549 71.5748C2.47499 71.5471 2.57412 71.6364 2.43666 71.5131L2.43726 71.5137L2.43987 71.5158L2.45993 71.5334L2.49966 71.5684L2.58034 71.6384L2.58937 71.6461L2.58676 71.6413L2.58054 71.6324C2.57615 71.6268 2.57095 71.6219 2.56509 71.6179C2.55437 71.6106 2.54205 71.606 2.52916 71.6045C2.54166 71.6106 2.55546 71.6136 2.56937 71.6132C2.58329 71.6128 2.5969 71.6091 2.60903 71.6023C2.61465 71.6003 2.62288 71.6007 2.62469 71.5914C2.62588 71.59 2.62733 71.589 2.62895 71.5882C2.63057 71.5874 2.63233 71.587 2.63412 71.587C2.63271 71.5912 2.64495 71.5788 2.65699 71.5666L2.69051 71.5332L2.94415 71.2822C3.10349 71.1268 3.24134 70.9967 3.3495 70.9079C3.12926 71.1133 2.91336 71.3232 2.70195 71.5376L2.64817 71.5925C2.64054 71.5983 2.64054 71.5957 2.63733 71.5985C2.63231 71.6011 2.63191 71.6103 2.6281 71.6147C2.62248 71.6155 2.61866 71.6186 2.61565 71.6246C2.61425 71.6342 2.60682 71.631 2.60281 71.6348C2.59779 71.6364 2.59499 71.6475 2.58897 71.6481C2.57753 71.6457 2.56669 71.6673 2.55385 71.6631C2.54639 71.6652 2.53938 71.6688 2.53318 71.6734C2.52679 71.6715 2.51995 71.6714 2.51351 71.6732C2.48181 71.6768 2.52435 71.6844 2.52435 71.7119L2.52555 71.722C2.52595 71.726 2.51151 71.7133 2.50508 71.7097L2.45512 71.675L2.40475 71.64L2.37927 71.6224L2.36662 71.6135L2.36021 71.6091L2.35859 71.6079C2.47739 71.7145 2.39151 71.6372 2.418 71.6613L2.41779 71.6611L2.41719 71.6603C2.41134 71.6532 2.4041 71.6474 2.39592 71.6431C2.38508 71.6394 2.37566 71.634 2.37284 71.6246C2.33512 71.6011 2.32649 71.5517 2.31826 71.4987C2.31144 71.4748 2.32749 71.4338 2.32589 71.4226C2.32549 71.4268 2.32267 71.4304 2.31806 71.4324C2.31527 71.4336 2.31228 71.4343 2.30923 71.4344H2.30382C2.30141 71.4346 2.31184 71.4236 2.31545 71.4188L2.37806 71.3425L2.41017 71.3037L2.42642 71.2838L2.43044 71.279L2.38147 71.333L2.38268 71.3318L2.38488 71.3294L2.39411 71.3204C2.61736 71.1008 2.8436 70.8841 3.07278 70.6706C3.07418 70.623 2.6889 70.9156 3.07519 70.5309C3.98964 69.6588 3.4095 70.3979 3.74361 70.1736C3.38342 70.5013 3.13037 70.7519 2.92509 70.9782C2.82255 71.0913 2.73184 71.1983 2.64536 71.3059L2.51833 71.4678L2.51813 71.4682L2.58094 71.3991L2.58054 71.3997L2.57973 71.4013L2.57793 71.4041L2.57452 71.4095L2.5677 71.4206L2.55425 71.4425L2.52736 71.4872C2.51151 71.5151 2.48643 71.5515 2.4778 71.5734C2.46817 71.5824 2.52716 71.5346 2.57713 71.4951C2.58968 71.485 2.60232 71.475 2.61505 71.465L2.63271 71.4511L2.63693 71.4477L2.63793 71.4469L2.63853 71.4465L2.63873 71.4463L2.63893 71.4461L2.5707 71.521L2.57291 71.5196L2.58114 71.5145L2.61606 71.4919C2.62348 71.4439 3.05573 71.0126 3.16368 70.8662L3.35572 70.8353C3.21526 70.7979 3.84074 70.0425 4.41907 69.5345C3.93285 70.1453 4.07833 69.9943 4.02997 70.2437C4.89245 69.5783 4.80034 69.2916 5.76094 68.5398C5.66803 68.5755 4.89666 69.2986 5.52275 68.6337C6.05512 68.0974 6.05312 68.2372 6.43499 67.902C5.9556 68.2305 6.00456 68.0725 5.4776 68.4211C4.51519 69.3578 5.09412 68.8038 4.13031 69.6963L4.85593 68.8514C4.03659 69.6409 4.18389 69.35 4.08917 69.3877C5.39252 67.944 5.24081 68.4679 6.1085 67.5679C6.5871 67.1938 5.28817 68.4034 6.01057 67.7922C6.8293 66.9579 6.24817 67.6523 7.21158 66.7599L7.02155 66.8808C7.26215 66.5543 7.59787 66.3288 7.9348 66.0094C8.31948 65.6722 7.78228 66.6724 9.27687 65.1989C9.18316 65.2508 9.14323 65.2644 9.1346 65.2558L7.05867 66.0798C8.72507 64.4275 10.3711 62.7552 11.9965 61.0632C12.2863 60.5339 10.6488 62.2019 10.7008 62.0412L9.92865 62.8573C10.025 62.8641 11.6145 61.2152 10.9862 62.0204C9.54155 63.3809 8.96222 64.0739 7.52041 65.2939C7.81319 64.7608 9.30075 63.5695 10.0749 62.6135C9.71814 62.9834 9.39687 63.2759 9.08041 63.5554L11.6456 60.907L11.8838 60.7292C11.2719 61.3638 10.8497 61.8037 10.7983 61.8633C11.6169 61.0294 12.3838 60.4022 12.5283 60.4361L12.384 60.5855L12.7117 60.3158C12.9014 60.1176 13.0902 59.9188 13.278 59.7211ZM5.8665 6.1273C5.90844 6.18587 5.93814 6.23528 5.95499 6.27671C5.93753 6.23348 5.97987 6.25898 5.8665 6.1273ZM6.1697 69.6957L4.53626 71.3668L3.72937 72.1936L3.5293 72.3978C3.50161 72.429 3.45044 72.4721 3.40288 72.5113C3.35371 72.5488 3.31037 72.5948 3.25478 72.6231C3.04368 72.7579 2.79525 72.8181 2.54943 72.8243C2.77077 72.8032 2.98449 72.747 3.15646 72.6308C3.24756 72.5818 3.32101 72.5129 3.39064 72.444C3.4697 72.3731 3.5004 72.3205 3.55418 72.2603L4.08014 71.6212C4.38897 71.2407 4.60409 70.9612 4.66509 70.8461C4.72609 70.731 4.63258 70.7804 4.32395 71.0575C4.16964 71.1959 3.96154 71.3913 3.69225 71.6515L3.24114 72.0914C3.1992 72.136 3.15766 72.1661 3.11552 72.2001L3.05171 72.2517L2.97666 72.29L2.9004 72.3302L2.81552 72.3547C2.78662 72.3625 2.75833 72.3735 2.72843 72.3794L2.63612 72.3878C2.63512 72.4003 2.37726 72.3641 2.38047 72.3551C2.50649 72.3693 2.6606 72.3766 2.81552 72.3177C2.89619 72.2995 2.96803 72.2486 3.04388 72.2053L3.14783 72.1187C3.18415 72.0884 3.22448 72.0432 3.26341 72.0055C3.59735 71.6705 3.93544 71.3396 4.2776 71.0128C4.78664 70.6145 5.29876 70.22 5.81392 69.8295L6.56944 69.262C6.7667 69.1165 6.89212 69.0281 6.89232 69.0379C6.74703 69.2801 6.40971 69.508 6.07118 69.874L6.1697 69.6957ZM6.66055 68.6217C7.26757 67.9799 7.16423 68.1605 7.29647 68.0988L6.62443 68.7394C6.69888 68.648 6.72757 68.5946 6.66055 68.6217ZM7.29406 68.1709C7.22442 68.2416 7.16603 68.303 7.13934 68.339L7.29406 68.1709ZM7.76102 64.9233L7.69459 64.9851L8.13767 64.5289C8.08329 64.5942 7.97313 64.7122 7.76102 64.9233ZM6.57506 66.272L6.36175 66.3559L6.77734 65.9284C6.75908 66.0047 6.73479 66.0792 6.57506 66.272ZM2.69753 70.5421C2.61385 70.5869 2.49686 70.6738 2.36623 70.7786L2.16234 70.9459L2.10997 70.9897L2.08368 71.0117L2.07063 71.0228L2.07024 71.0232C2.07907 71.0132 2.04957 71.0455 2.0901 71.0013L2.0895 71.0021L2.08789 71.0037L2.08488 71.0069L2.07887 71.0128L1.98375 71.1105C1.94422 71.1467 1.9382 71.166 1.92435 71.1866C1.91131 71.2081 1.89345 71.2246 1.8792 71.2487C1.85933 71.3041 1.82281 71.3529 1.81178 71.4017C1.79873 71.4497 1.78027 71.4915 1.76722 71.5242C1.7588 71.5569 1.74696 71.58 1.73191 71.5892C1.71947 71.6232 1.70281 71.5876 1.68916 71.5091L1.69258 71.3641C1.6994 71.3091 1.71967 71.2499 1.73331 71.1871C1.74715 71.1559 1.76421 71.127 1.77926 71.0961C1.79572 71.0656 1.80435 71.0342 1.83505 71.0019L1.91372 70.9045L1.93358 70.88C1.93864 70.8749 1.94365 70.8698 1.94863 70.8646L1.99358 70.819C2.11378 70.6975 2.23739 70.572 2.36481 70.4427C2.38669 70.4467 2.4501 70.4078 2.54703 70.3347C2.30402 70.5981 2.15632 70.7887 2.31425 70.7409C2.84823 69.9732 2.98509 70.2441 3.66094 69.512C3.9487 69.3512 2.93693 70.3546 2.69753 70.5421ZM23.1822 20.8078C23.1544 20.7956 23.0655 20.747 22.9436 20.6755L23.3974 21.2134C24.3046 22.0756 25.1442 22.6543 25.8333 23.5573C26.235 23.9011 26.4939 24.0418 26.7333 24.1838C26.5467 24.0055 26.3707 23.84 26.2206 23.7059C24.1412 21.3212 24.8819 22.7152 23.1822 20.8078ZM33.548 30.7863C33.4621 30.6899 33.4437 30.6429 33.4437 30.6429C35.2637 32.775 36.8498 34.4438 37.9256 35.4992C37.6533 35.358 36.6435 34.4554 36.1611 34.0298L36.4908 34.5042L36.8011 34.6966L37.4348 35.4592C37.189 35.314 36.6333 34.7418 36.2167 34.4042C36.1979 34.3576 35.0727 33.069 34.7797 32.6876L35.7989 33.5978C35.5168 33.3587 34.2498 32.067 33.7595 31.5429C33.7868 31.4961 34.7213 32.3105 34.7512 32.5001C34.9106 32.5493 33.8996 31.5443 34.5983 32.1208C33.899 31.3098 32.6438 30.1612 32.0568 29.6327L31.8696 29.6305C31.2197 29.0565 31.5662 29.1079 30.7832 28.4368C31.6619 29.345 30.5301 28.387 31.2367 29.1021C30.9738 28.9107 31.1342 29.1946 30.4262 28.478C29.9536 27.7656 29.596 27.8063 29.1415 27.1405C28.7275 26.8054 29.4722 27.6152 28.7165 26.8973C27.9325 25.9915 28.0276 25.9943 28.0643 25.8536C28.8825 26.6162 28.8395 26.8533 29.5099 27.4758L28.3724 26.0435C28.6318 26.258 28.81 26.4305 28.9515 26.5831C28.701 26.317 28.5034 26.0759 28.3461 25.8578L28.0934 25.5171C28.8255 26.2423 29.477 26.8849 29.6297 26.9612L29.5722 26.8182C29.8708 27.0357 30.2617 27.4856 30.4246 27.7101C31.0746 28.3649 31.6683 29.0739 31.8674 29.1603L31.6583 28.8743C32.4516 29.6858 32.536 29.7803 33.548 30.7863ZM18.4156 57.5964C18.7448 56.9549 19.1426 56.282 21.4467 54.0496L21.2566 54.2165C22.3043 52.9788 23.6249 52.1266 24.91 50.6313C24.1729 51.2445 24.2149 51.2136 23.3305 51.8204L24.1021 51.1435C23.8144 51.2578 24.5839 50.5827 25.1131 50.0492L24.54 50.4146C24.2494 50.7616 23.4305 51.5957 23.4315 51.5483C23.6245 51.3792 22.4657 52.7643 21.742 53.4233C21.7442 53.2832 23.2368 51.8573 22.4693 52.3937C23.0933 51.8686 23.0956 51.729 23.7224 51.1549C23.097 51.6814 23.4847 51.2029 23.0038 51.5796L24.0156 50.6222C24.0182 50.5736 22.5251 51.9997 23.2493 51.111C23.6815 50.7542 24.6929 49.6596 24.7868 49.715L24.788 49.6679C25.5124 48.9167 25.2196 49.4496 26.0865 48.5045C26.1349 48.5312 25.9874 48.7293 25.6539 49.045C25.3619 49.3018 25.2682 49.2926 24.6907 49.8452C24.4948 50.156 25.3673 49.159 25.0727 49.6482C24.9265 49.8913 23.5328 51.0923 24.0588 50.7909L24.782 50.0411C24.8759 50.0966 25.4069 49.561 25.4524 49.6359C25.932 49.2145 26.2742 48.7073 26.8011 48.3137C27.0411 48.1715 26.7967 48.593 27.5211 47.7957C28.0071 47.0933 29.7873 45.3688 30.4619 44.7307L31.0862 44.2058C31.0832 44.3002 29.9785 45.2929 30.4083 44.9849L31.3254 44.1101L31.2273 44.1504C31.5188 43.8482 31.8544 43.5766 32.1427 43.3233C31.8086 43.5476 31.1825 44.2123 31.2331 44.0071C31.6397 43.5729 31.6752 43.4802 32.0783 43.1097C31.988 43.1884 31.9075 43.2531 31.9071 43.2316C32.7277 42.3499 32.8194 42.4991 33.059 42.3119C34.0194 41.56 32.2874 43.2647 32.4776 43.2356L35.0284 40.7887C34.7888 40.9761 34.5479 41.1654 34.5967 41.0532C35.1758 40.4068 34.5502 40.9793 35.4174 40.1257C35.4628 40.2927 36.5713 39.1121 37.2431 38.5679C37.4843 38.2414 37.5343 38.1744 36.9096 38.792C36.9086 38.6555 37.7825 37.841 38.0593 37.5537C38.0956 37.5244 38.1312 37.4943 38.166 37.4633C38.2477 37.3907 38.3556 37.3079 38.4478 37.2089C38.4939 37.1595 38.5431 37.1116 38.5728 37.0545C38.6067 37.0001 38.6436 36.9497 38.6599 36.8975C38.629 37.0624 38.6157 37.1118 38.6884 37.0403C38.704 37.0214 38.7297 36.9967 38.749 36.9592C38.767 36.9214 38.7877 36.8742 38.8112 36.8174C38.8354 36.7608 38.8397 36.6899 38.8557 36.611C38.8625 36.5213 38.859 36.4311 38.8453 36.3421L38.8525 36.2943C38.9127 36.5015 38.9219 36.7501 38.8375 36.9859C38.7584 37.2268 38.5686 37.4138 38.3892 37.6123L37.8425 38.186L37.3395 38.7014C37.0176 39.0241 36.7298 39.2954 36.5187 39.4576L36.7102 39.3358C35.7447 40.413 34.3547 41.4272 34.0128 42.0264C34.1083 42.0346 33.8187 42.2427 33.9114 42.2991L33.0981 42.9906L33.2891 42.8685L31.9882 44.1265L32.0362 44.1066L30.3975 45.3992C30.3634 45.3684 30.3931 45.319 30.1655 45.4968C29.9861 45.6469 29.8154 45.8069 29.6542 45.9762C29.653 45.977 29.653 45.9769 29.6526 45.9767L29.653 45.9771C29.3476 46.2995 29.1845 46.5543 28.8156 46.9585L30.0176 45.7811C30.1704 45.7397 30.1264 45.8975 29.58 46.5168C29.8214 46.2813 29.9647 46.2248 29.6749 46.5252C29.6279 46.5431 28.8572 47.2668 29.0986 46.9391C27.9441 48.0452 26.2533 50.0126 24.4258 51.6176C25.7263 50.452 23.5085 52.6758 24.9048 51.3347C24.0347 52.3746 23.9925 52.067 23.0289 53.0509C22.9776 53.1653 23.5569 52.5187 23.8442 52.3579C22.2547 54.0062 20.9594 54.9375 19.4143 56.5248L19.4163 56.6603C19.1095 56.9469 18.7693 57.2655 18.4156 57.5964ZM15.2197 60.5979L14.2745 61.4887L14.3628 61.3969L13.3982 62.2439C13.9296 61.6627 14.2218 61.222 13.4046 61.9629C13.499 61.9258 13.3055 62.1876 13.5939 61.9342C13.1117 62.4956 12.0024 63.6763 12.1976 63.2751C13.3031 62.3738 12.2992 62.9101 13.1634 62.1977C12.671 62.5513 12.2811 62.9994 11.8498 63.3671C12.324 63.0093 11.8816 63.5918 11.282 64.2411C10.9924 64.4952 10.2698 65.2443 9.78898 65.667C9.8867 65.4431 9.45526 65.7987 10.1779 65.0492C9.76737 65.4091 9.38069 65.7948 9.02022 66.2041C9.21747 66.03 9.55118 65.7144 9.55179 65.7598C9.30717 66.1192 8.94958 66.4692 8.77861 66.6886L8.30101 67.1424C8.34115 67.0912 8.37346 67.0447 8.39272 67.0075L7.817 67.4671C8.53881 66.8103 8.10717 67.1204 8.06102 67.0922C8.15433 67.1479 7.62536 67.5438 7.38637 67.7763L7.82162 67.1874C7.53326 67.3948 7.00108 68.1153 7.05265 67.9087C8.11219 66.7945 8.54523 66.3915 9.5554 65.4353L9.21647 65.8939C10.3731 64.8319 9.79761 65.1078 11.0498 63.8709C11.6249 63.4109 12.9321 62.0099 13.0701 62.0959C12.8793 62.2173 13.748 61.2246 14.227 60.8501C14.8027 60.4823 16.2471 59.0759 15.8608 59.5524C15.4753 59.9375 14.8988 60.3979 14.6548 60.7728L15.426 60.0496L14.9899 60.5935C15.2243 60.3214 15.2542 60.4001 15.2197 60.5979ZM3.84375 67.3553L3.87124 67.3252L3.83953 67.3575L3.84375 67.3553Z" fill="#F16A50"/>
<path d="M12.3511 9.88678C12.1603 9.64697 11.6209 9.12105 11.7811 9.17013C11.7071 9.21761 12.728 10.1266 12.3511 9.88678ZM11.6517 9.31158C11.6286 9.25991 11.6779 9.2629 11.4398 9.02288L12.0856 9.69306L11.6517 9.31158ZM10.566 9.058C10.2701 8.67533 10.0798 8.43611 9.54037 7.90999C9.1913 7.85752 10.3753 8.81878 10.4796 9.19586C9.48498 8.23799 9.31295 7.81163 8.51872 7C8.9804 7.33499 10.649 8.91734 10.566 9.058ZM10.8148 9.6749L10.3026 9.10149L10.365 9.14618L10.8776 9.71999L10.8148 9.6749ZM23.9171 20.1049C24.0128 20.1077 24.3071 20.4896 24.4781 20.6813C24.3268 20.5375 24.1073 20.344 23.9171 20.1049ZM17.186 19.5515L13.0692 15.3852L17.186 19.5515ZM37.4243 34.0832C36.3505 32.9332 35.9339 32.3624 34.8156 31.2146C36.4061 32.6052 36.6476 33.3174 38 34.4678L37.4243 34.0832ZM37.3993 33.3272C37.127 33.2301 38.1595 34.2823 37.9333 34.1849C37.2015 33.418 37.6656 33.7554 36.9747 33.0858L37.3993 33.3272ZM30.8952 29.7385L31.1887 30.119L30.9325 29.8323L30.8952 29.7385ZM37.496 40.3302L37.6392 40.2272L37.1065 40.8096L37.496 40.3302ZM37.7827 40.1249L37.6392 40.2272L37.7827 40.1249ZM31.1436 30.3548L30.6213 29.8744L30.4124 29.5881L31.1436 30.3548ZM36.056 34.2945L35.6334 33.8206C35.7174 33.9144 36.3694 34.4894 36.056 34.2945ZM34.1112 43.7561L33.5297 44.2658L33.577 44.202L34.1567 43.6938L34.1112 43.7561ZM37.7857 37.4227C37.8141 37.3498 37.7633 37.3814 37.6995 37.4352L37.6012 37.523L37.4686 37.6457C37.431 37.6788 37.4126 37.6914 37.4277 37.6667C37.443 37.6436 37.4596 37.6213 37.4773 37.6C37.4986 37.5715 37.553 37.5095 37.5635 37.4895L37.6574 37.4067C37.8368 37.2571 37.7913 37.3618 37.7857 37.4227ZM31.7638 44.2872C31.6899 44.3604 31.6097 44.4352 31.5271 44.5023L31.7638 44.2872ZM31.7638 44.2872C32.0025 44.0508 32.2156 43.789 32.3987 43.6459C32.1314 43.9709 32.0115 44.0669 31.7638 44.2872ZM29.0133 46.9806L29.225 46.7614C28.9708 46.9479 29.0805 46.8488 29.3045 46.6796C29.5362 46.4547 29.5444 46.4884 29.5863 46.4759L29.7533 46.3619L29.541 46.5241C29.1863 46.8767 28.9661 47.0884 29.0133 46.9806ZM19.983 58.1619C20.7573 57.3452 20.9521 57.1286 20.8566 57.12C21.5989 56.3519 21.5707 56.5574 22.0491 56.1246C21.1805 56.965 21.029 57.1627 19.983 58.1619ZM22.0491 56.1246L22.353 55.8319C22.2546 55.9324 22.1532 56.03 22.0491 56.1246ZM31.6413 43.2515L31.0648 43.6647L31.2582 43.4951L31.6413 43.2515ZM18.823 59.3627C18.968 59.2125 19.2077 58.9795 19.3066 58.8462C19.4015 58.8556 18.6782 59.5124 18.823 59.3627ZM20.8862 55.299C20.9356 55.1871 21.4661 54.6995 21.6621 54.481C21.3701 54.7835 21.2226 55.1195 20.8862 55.299ZM16.315 61.4217C16.4598 61.2715 16.6528 61.0111 16.5112 61.0664C16.7519 60.8783 17.1352 60.6805 16.315 61.4217ZM19.4347 56.7555L19.531 56.6248L20.1115 56.116L19.4347 56.7555ZM20.6179 54.062C21.2951 53.5142 19.7917 55.1771 20.904 54.1795C19.6019 55.5977 20.9209 53.9886 19.9226 54.9975C20.4922 54.3916 20.7029 54.0273 20.6179 54.062ZM19.9224 54.9974C19.84 55.0853 19.7488 55.1793 19.6483 55.2795L19.9224 54.9974ZM11.6564 63.963C11.7304 63.8993 11.8064 63.838 11.8842 63.779C11.8087 63.8435 11.7351 63.9037 11.6564 63.963ZM16.6512 58.1361L17.6664 57.3151C16.9886 57.8638 15.4426 59.4024 15.4465 59.2147C15.9293 58.6992 16.5577 58.1254 16.8458 57.9195L16.6512 58.1361ZM7.74886 70.2864L8.18395 69.9281L7.6973 70.4314C7.82581 70.2766 7.5001 70.4646 7.74886 70.2864ZM7.60303 70.5288L7.6973 70.4316C7.67836 70.455 7.64875 70.4859 7.60303 70.5288ZM13.4455 62.2799C13.7367 61.9782 13.9776 61.7446 14.2659 61.492C14.1708 61.6209 13.4449 62.3724 13.4455 62.2799ZM4.80821 72.9318L5.48178 72.2959L4.75745 73L4.80821 72.9318ZM1 69.9666L1.09608 69.8369L1.67458 69.3297L1.57669 69.4612L1 69.9666ZM4.08529 70.3441C4.52118 69.8926 4.95284 69.6302 4.85353 69.7633L3.98537 70.6156C4.13222 70.3259 4.22729 70.3802 4.71011 69.8656L4.08529 70.3441ZM23.9121 47.5419C23.6704 47.6849 22.7531 48.6494 22.7497 48.7441C22.8967 48.6382 23.4287 48.1496 23.1362 48.4977L22.2684 49.1202C21.3481 50.1797 23.1819 48.5267 23.7157 48.082C22.7174 49.1011 22.3383 49.3209 21.2607 50.3894C21.4837 50.1543 21.6911 49.9051 21.8815 49.6434C21.834 49.5237 20.8665 50.5557 20.1416 51.2604C20.5623 50.7714 20.2668 51.0029 19.9008 51.2999C19.8382 51.3568 19.7937 51.3915 19.7596 51.4139L19.6348 51.5142L19.7212 51.429C19.7055 51.4256 19.7131 51.3955 19.7596 51.3185C20.3867 50.7459 20.7773 50.2196 21.1642 49.8343C20.9177 50.3496 22.5172 48.557 23.0472 48.1155L23.6238 47.571L23.8349 47.3625C23.8623 47.3056 23.7834 47.3463 23.4351 47.6378C23.7304 47.399 24.6149 46.5038 24.5764 46.6293L26.6189 44.61C26.673 44.5478 26.7237 44.4828 26.7708 44.4153C26.8501 44.3536 26.8689 44.349 26.8666 44.3652C29.3668 41.8942 31.8669 39.4234 34.3614 36.9526L34.332 36.9171C34.3495 36.9285 34.3703 36.94 34.3936 36.9526C34.3876 36.9863 34.3797 37.0324 34.3429 37.0905C34.4559 37.0687 34.4365 37.0959 34.389 37.1497L34.3721 37.1693C34.364 37.1783 34.3709 37.1727 34.3298 37.2148C34.2697 37.2772 34.2135 37.3367 34.1696 37.3868C34.0816 37.4869 34.0417 37.549 34.1128 37.521C34.1968 37.4532 34.2873 37.3742 34.3793 37.2892C34.4404 37.2319 34.4341 37.2401 34.4502 37.2253L34.4859 37.1908C34.5316 37.1433 34.5665 37.0937 34.5812 37.0584C34.6285 37.0542 34.6456 37.0781 34.6557 37.1108C34.6666 37.1425 34.6702 37.1836 34.7141 37.1916C34.6763 37.2417 34.6347 37.2889 34.5898 37.3329C34.5785 37.3433 34.4267 37.4867 34.336 37.5653C34.1338 37.7433 33.9531 37.8829 33.7724 38.021C33.4113 38.2973 33.0503 38.5675 32.5179 39.1261C32.6134 39.1347 32.9977 38.844 32.2732 39.5477L32.4668 39.3781C31.2596 40.4585 31.6892 40.3813 30.8233 40.9565L30.9174 41.0119C30.3395 41.4722 29.3251 42.4762 28.7434 43.0318L28.7919 43.0125C27.1029 44.515 27.8738 43.8858 26.0378 45.6331L26.9539 44.8993C26.3691 45.5501 26.1338 45.5944 25.698 46.0457C25.7443 46.0284 25.6957 46.1852 26.1304 45.7817L23.8126 47.813C23.2345 48.2737 23.8629 47.654 23.9121 47.5419ZM21.2607 50.3894C21.1312 50.5265 20.9981 50.6603 20.8615 50.7904L21.2607 50.3894Z" fill="#F16A50"/>
<path d="M33.9362 36L34 36.0648C33.9734 36.0492 33.9514 36.0268 33.9362 36ZM17.4379 52.7319C17.782 52.3121 17.096 52.9627 17 53L18.3741 51.6367C18.3972 51.6719 18.5657 51.5694 18.5651 51.6235L17.4379 52.7319Z" fill="#F16A50"/>
<path d="M19.3335 52.2986C19.3982 52.2726 19.5564 52.1461 19.7308 52.0011L19.0025 52.7496C18.9858 52.723 19.0479 52.619 19.3335 52.2986ZM20.705 54L20.9427 53.7604L21.3203 53.4168L20.705 54ZM24.2582 50.0856C24.0205 50.419 23.455 50.934 23.2658 51.1062C23.8813 50.4753 23.5988 50.7323 24.2582 50.0856ZM23.9598 51.3405L24.576 50.7563L24.5293 50.8219L23.9598 51.3405ZM30 32.3028L29.7156 32C29.8125 32.0987 29.9074 32.1997 30 32.3028Z" fill="#F16A50"/>
<path d="M35 35.86C34.7942 35.7188 34.7886 35.7481 34.809 35.7984C34.8325 35.8519 34.8931 35.9379 34.8871 35.9764C34.8299 36.0031 34.7877 36.0071 34.7534 35.9886C34.7596 35.9851 34.7655 35.981 34.7709 35.9764C34.756 35.9359 34.738 35.8966 34.7171 35.8588L34.6868 35.8854L34.6216 35.8118L34.2022 35.389C34.4457 35.5324 34.5946 35.6734 34.604 35.5807C33.3193 34.3534 34.1442 35.2478 33.1515 34.3969L31.7474 32.9936L31.8463 33.1216C31.7284 33.003 31.6822 32.945 31.6499 32.8963L26.9186 28.1666C26.0927 27.2717 27.4904 28.5479 26.9271 27.8427C27.9315 28.8337 29.4787 30.2517 29.4614 30.4372C29.4418 30.39 29.4038 30.2964 29.6195 30.4853L30.1158 31.1416L29.5349 30.6218C30.0348 31.2812 31.94 33.123 32.3334 33.4078C31.2894 32.3215 31.9292 32.7523 30.3796 31.3327C30.4727 31.3732 30.7921 31.5978 30.4701 31.2519C31.3306 32.1301 32.1649 32.9446 32.9999 33.7741C33.4221 34.1925 33.8409 34.6142 34.2563 35.0392L34.5727 35.366L34.7316 35.5314L34.8084 35.612L34.8319 35.6405C34.8939 35.7162 34.9513 35.7904 35 35.86ZM18.0186 19.0141L18.023 19.0369C17.9965 19.001 17.9901 18.9872 18.0186 19.0141ZM18.6192 19.5813L19.3717 20.5224L18.0491 19.2021L18.023 19.0369C18.1227 19.1707 18.5536 19.6662 18.762 19.8174L18.6192 19.5813ZM20.3018 21.5598C19.6447 20.8524 19.7651 20.8072 20.1778 21.1395C19.5854 20.4792 19.7555 20.8994 19.409 20.3842C19.4832 20.3392 20.2259 21.1409 20.3936 21.3281L20.3018 21.5598ZM25.416 26.5173L25.2573 26.2928L25.7424 26.7531L25.416 26.5173ZM25.2573 26.2928L24.7753 25.8359C24.8336 25.8428 24.891 25.8501 24.9855 25.9089L25.2573 26.2928ZM23.5112 24.6364C23.274 24.4163 23.0394 24.1935 22.8074 23.9681L23.5112 24.6364ZM24.0729 25.1484L24.046 25.1433L23.5112 24.6364C23.7124 24.8194 23.8922 24.9838 24.0729 25.1484Z" fill="#F16A50"/>
<path d="M24.9008 26.2637C24.7666 26.2452 24.6164 26.2166 23.9533 25.5198L24.1759 25.5643L24.9008 26.2637ZM28.7314 45.9345L29.3016 45.4289L29.2538 45.4949L28.6839 46L28.7314 45.9345ZM31.7789 42.7749C31.8957 42.6744 32.0146 42.5764 32.1357 42.4811C31.9894 42.615 31.8685 42.7167 31.7789 42.7749ZM34.479 40.8621C35.0527 40.1704 33.53 41.6586 34.6744 40.4599C34.7234 40.3023 34.1049 40.7818 33.5808 41.361C33.6757 41.3684 34.1505 40.8557 33.8637 41.2474C33.4386 41.5551 33.3397 41.7348 33.3903 41.5301C32.7266 42.0987 32.6033 42.1128 32.1353 42.4813C32.9135 41.7694 34.3973 40.1244 35.4406 39.2768C36.0539 38.8478 35.8642 39.2905 36 39.4224C35.9532 39.5325 34.6183 40.8998 34.479 40.8621ZM33.6179 41.9923C33.332 42.2918 33.2372 42.3762 33.0467 42.5447C33.0495 42.4505 33.3796 42.2271 33.6179 41.9923ZM34.5519 33.9724C34.515 33.8976 34.0096 33.3436 34.156 33.4246L34.9343 34.2525C34.743 34.067 34.6534 34.0237 34.5519 33.9724ZM35.2761 34.6154L34.9345 34.2525C35.0241 34.3389 35.1304 34.4505 35.2761 34.6154ZM34.5022 33.946L34.5519 33.9724C34.5593 33.9877 34.5531 33.9897 34.5022 33.946ZM21.6641 23.1349C21.6387 23.1829 21.3033 22.8028 21.1346 22.6121C21.2835 22.7553 21.5004 22.9484 21.6641 23.1349ZM8.35067 9.50558L8.00574 9.21836C8.13479 9.31291 8.20061 9.36157 8.35067 9.50558ZM4.48515 3.62538C4.48297 3.60889 4.46572 3.57969 4.43976 3.54255C4.46671 3.5785 4.48257 3.60651 4.48515 3.62538ZM4.43976 3.54235C4.25441 3.29565 3.54078 2.67554 3.3477 2.38911L3.36395 2.4338L3.15462 2.19664L3.07791 2.10964C3.06621 2.09614 3.05194 2.08124 3.0442 2.07071C3.03969 2.06264 3.03506 2.05463 3.03033 2.04668L3 2C3.0222 2.0431 3.18951 2.20637 3.32589 2.34502L3.7739 2.80206C4.07104 3.10894 4.34104 3.39894 4.43976 3.54235Z" fill="#F16A50"/>
</svg>
